<?xml version="1.0" encoding="utf-8"?>
<!-- Generator: Adobe Illustrator 19.0.0, SVG Export Plug-In . SVG Version: 6.00 Build 0)  -->
<svg version="1.1" id="图层1" xmlns="http://www.w3.org/2000/svg" xmlns:xlink="http://www.w3.org/1999/xlink" x="0px" y="0px"
	 viewBox="10 200 1200 600" style="enable-background:new 0 0 841.9 595.3;" xml:space="preserve">
<style type="text/css">
	.st0{fill:#fff;}
	.st1{fill:#fff;}
</style>
<g id="XMLID_124_">
	<path class="st1" id="XMLID_131_" d="M457,298.9c0,0,0,0.8-0.1,1.1c-0.8,8.6-1.5,11.8-2.7,13c-0.7,0.7-1.5,1-2.6,1c-1,0.1-2.9,0-4.9-0.1
		c0-0.6-0.3-1.6-0.7-2.2c2,0.2,3.9,0.2,4.6,0.2s1.1,0,1.4-0.4c0.9-0.8,1.6-3.5,2.2-10.3h-5.1c-2.2,5.3-5.5,10-9.4,13
		c-0.4-0.4-1.5-1.3-2.1-1.6c3.7-2.7,6.8-6.8,8.7-11.4h-5.7c-3,4.9-7.5,9.2-12,12.1c-0.4-0.5-1.4-1.4-2-1.8c4.4-2.4,8.4-6,11.2-10.3
		h-6c-2,2-4.3,3.7-6.5,5c-0.4-0.5-1.5-1.4-2.1-1.7c4-2.1,7.8-5.4,10.4-8.9h-4.6v-14.4h25.5v14.4h-17.8c-0.8,1.1-1.7,2.3-2.6,3.4H457
		z M431.5,287.2h20.2v-4h-20.2V287.2z M431.5,293.3h20.2v-4h-20.2V293.3z"/>
	<path class="st1" id="XMLID_135_" d="M463.5,281.5h13.9v2.4h-6.3c-0.6,3.2-1.5,6.4-2.5,9.2h8.1v16.1h-8.1v3.1h-2.3v-14.1
		c-0.7,1.2-1.4,2.3-2.2,3.3c-0.2-0.6-0.8-1.9-1.2-2.5c2.8-3.6,4.7-9.1,5.8-15h-5.1V281.5z M474.3,295.3h-5.8v11.6h5.8V295.3z
		 M499.6,297.5H495V314h-2.5v-16.5h-6.9c-0.2,5.8-1.2,12.1-5.7,16.6c-0.4-0.4-1.4-1.1-2.1-1.4c4.2-4.2,5.1-10,5.2-15.2h-4.5v-2.4
		h4.5v-11.2h-3.4v-2.4h19.1v2.4H495v11.2h4.6V297.5z M492.4,295.1v-11.2h-6.9v11.2H492.4z"/>
</g>
<path id="XMLID_6_" class="st0" d="M375.4,266.1c-17.3,0-31.3,14.1-31.3,31.3s14.1,31.3,31.3,31.3c3.3,0,6-2.7,6-6s-2.7-6-6-6
	c-10.7,0-19.3-8.7-19.3-19.3c0-10.7,8.7-19.3,19.3-19.3s19.3,8.7,19.3,19.3c0,3.1-0.7,6.1-2.1,8.8l-13-13c-2.3-2.3-6.1-2.3-8.5,0
	c-2.3,2.3-2.3,6.1,0,8.5l17.9,17.9c2.3,2.3,6.1,2.3,8.5,0c5.9-5.9,9.2-13.8,9.2-22.2C406.8,280.2,392.7,266.1,375.4,266.1z
	 M394.8,316.8c-0.8,0.8-2,0.8-2.8,0L374,298.9c-0.8-0.8-0.8-2,0-2.8c0.8-0.8,2-0.8,2.8,0l16.4,16.4c3.5-4.2,5.5-9.5,5.5-15
	c0-12.9-10.5-23.3-23.3-23.3s-23.3,10.5-23.3,23.3s10.5,23.3,23.3,23.3c1.1,0,2,0.9,2,2s-0.9,2-2,2c-15.1,0-27.3-12.3-27.3-27.3
	c0-15.1,12.3-27.3,27.3-27.3s27.3,12.3,27.3,27.3C402.8,304.8,399.9,311.6,394.8,316.8z"/>
</svg>
